<svg xmlns="http://www.w3.org/2000/svg" viewBox="0 0 170.68 170.681">
  <defs>
    <style>
      .cls-1 {
        fill: none;
      }

      .cls-2, .cls-4 {
        fill: #fe7201;
      }

      .cls-3, .cls-4 {
        stroke: none;
      }
    </style>
  </defs>
  <g id="Groupe_3617" data-name="Groupe 3617" transform="translate(-1393.438 -2400)">
    <g id="Tracé_2279" data-name="Tracé 2279" class="cls-1" transform="translate(1393.438 2400)">
      <path class="cls-3" d="M85.34,0A85.34,85.34,0,1,1,0,85.34,85.34,85.34,0,0,1,85.34,0Z"/>
      <path class="cls-4" d="M 85.34030151367188 1.999984741210938 C 79.68446350097656 1.999984741210938 74.03277587890625 2.569671630859375 68.54221343994141 3.693191528320312 C 63.19220733642578 4.7879638671875 57.92977905273438 6.4215087890625 52.901123046875 8.5484619140625 C 47.96330261230469 10.63699340820312 43.20059967041016 13.22210693359375 38.74534606933594 16.23200988769531 C 34.3319091796875 19.21369934082031 30.181640625 22.63798522949219 26.40982055664062 26.40980529785156 C 22.63800048828125 30.18162536621094 19.21371459960938 34.33189392089844 16.23202514648438 38.74533081054688 C 13.22212219238281 43.20060729980469 10.63700866699219 47.96328735351562 8.548477172851562 52.90110778808594 C 6.421524047851562 57.92978668212891 4.787979125976562 63.19221496582031 3.693206787109375 68.54222106933594 C 2.569686889648438 74.03276062011719 2 79.68447113037109 2 85.34030914306641 C 2 90.99614715576172 2.569686889648438 96.64783477783203 3.693206787109375 102.1383972167969 C 4.787979125976562 107.4884033203125 6.421524047851562 112.7508316040039 8.548477172851562 117.7794952392578 C 10.63700866699219 122.7173080444336 13.22212219238281 127.4800109863281 16.23202514648438 131.9352722167969 C 19.21371459960938 136.3486938476562 22.63800048828125 140.4989624023438 26.40982055664062 144.2707824707031 C 30.181640625 148.0426025390625 34.3319091796875 151.4669036865234 38.74534606933594 154.4485778808594 C 43.20059967041016 157.45849609375 47.96330261230469 160.0436096191406 52.901123046875 162.1321258544922 C 57.92977905273438 164.2590789794922 63.19220733642578 165.8926239013672 68.54221343994141 166.9873962402344 C 74.03277587890625 168.1109161376953 79.68446350097656 168.6806030273438 85.34030151367188 168.6806030273438 C 90.99613952636719 168.6806030273438 96.6478271484375 168.1109161376953 102.1383895874023 166.9873962402344 C 107.4883880615234 165.8926239013672 112.7508239746094 164.2590789794922 117.7794799804688 162.1321258544922 C 122.7173004150391 160.0436096191406 127.4800109863281 157.45849609375 131.9352569580078 154.4485778808594 C 136.3486938476562 151.4669036865234 140.4989624023438 148.0426025390625 144.2707824707031 144.2707824707031 C 148.0426025390625 140.4989624023438 151.4668884277344 136.3486938476562 154.4485778808594 131.9352722167969 C 157.4584808349609 127.4800109863281 160.0435943603516 122.7173080444336 162.1321258544922 117.7794952392578 C 164.2590789794922 112.7508316040039 165.8926239013672 107.4884033203125 166.9873962402344 102.1383972167969 C 168.1109161376953 96.64783477783203 168.6806030273438 90.99614715576172 168.6806030273438 85.34030914306641 C 168.6806030273438 79.68447113037109 168.1109161376953 74.03276062011719 166.9873962402344 68.54222106933594 C 165.8926239013672 63.19221496582031 164.2590789794922 57.92978668212891 162.1321258544922 52.90110778808594 C 160.0435943603516 47.96328735351562 157.4584808349609 43.20060729980469 154.4485778808594 38.74533081054688 C 151.4668884277344 34.33189392089844 148.0426025390625 30.18162536621094 144.2707824707031 26.40980529785156 C 140.4989624023438 22.63798522949219 136.3486938476562 19.21369934082031 131.9352569580078 16.23200988769531 C 127.4800109863281 13.22210693359375 122.7173004150391 10.63699340820312 117.7794799804688 8.5484619140625 C 112.7508239746094 6.4215087890625 107.4883880615234 4.7879638671875 102.1383895874023 3.693191528320312 C 96.6478271484375 2.569671630859375 90.99613952636719 1.999984741210938 85.34030151367188 1.999984741210938 M 85.34030151367188 -1.52587890625e-05 C 132.4724426269531 -1.52587890625e-05 170.6806030273438 38.20814514160156 170.6806030273438 85.34030914306641 C 170.6806030273438 132.4724426269531 132.4724426269531 170.6806030273438 85.34030151367188 170.6806030273438 C 38.20816040039062 170.6806030273438 0 132.4724426269531 0 85.34030914306641 C 0 38.20814514160156 38.20816040039062 -1.52587890625e-05 85.34030151367188 -1.52587890625e-05 Z"/>
    </g>
    <g id="Groupe_3020" data-name="Groupe 3020" transform="translate(1442.664 2428.3)">
      <path id="Tracé_2240" data-name="Tracé 2240" class="cls-2" d="M63.469,50.9,57.317,1.032A1.2,1.2,0,0,0,55.979,0H50.821a.734.734,0,0,0-.726.764L44.21,50.859H38.822v2.484H37.1V30.492c0-1.337-4.7-2.446-10.508-2.446s-10.508,1.108-10.508,2.446v5.235H9.209v6.037H0V55.406H67.481V50.935L63.469,50.9Zm-2.254-2.6-6.076-5.35,4.891-4.318ZM59.456,34.084l-4.28-3.706,3.477-3.019Zm-2.713-16.2-3.057,2.293L50.63,17.883l3.057-1.949Zm-5.579-5.846,2.56-3.248,2.56,3.248-2.56,1.643ZM57.737,25.6l-4.012,3.477L49.674,25.6l4.012-3.057Zm-.076-6.037.5,3.974L55.291,21.36Zm-.42-3.63-1.758-1.108,1.49-.955ZM56.4,9.094,54.948,7.222l1.07-1.337ZM53.725,3.172l1.452.688L53.725,5.693,52.273,3.859ZM51.432,5.885,52.5,7.26,51.05,9.094Zm-.917,7.986,1.452.917-1.681,1.07Zm-.688,5.77L52.12,21.4l-2.751,2.1Zm-.917,7.833,3.363,2.9-4.127,3.554Zm4.815,4.165,5.732,4.967-5.732,5.082-5.732-5.082Zm-6.152,7.145,4.7,4.165L46.5,48.07ZM46.159,50.859l7.528-6.687,7.566,6.687Z"/>
      <path id="Tracé_2241" data-name="Tracé 2241" class="cls-2" d="M62.4,246.4c0-.038-.038-.076-.038-.115s-.038-.038-.038-.076h0a.551.551,0,0,0-.5-.306.6.6,0,0,0-.5.306.543.543,0,0,0-.076.229c-1.223,2.942-2.751,4.241-5.044,4.241h0c-2.331,0-3.859-1.337-5.082-4.28,0-.038-.038-.076-.038-.115s-.038-.038-.038-.076h0a.551.551,0,0,0-.5-.306.6.6,0,0,0-.5.306.543.543,0,0,0-.076.229c-1.185,2.9-2.713,4.2-4.967,4.241-2.293-.038-3.783-1.337-4.967-4.28,0-.038-.038-.076-.038-.115s-.038-.038-.038-.076h0a.556.556,0,0,0-.993,0,.543.543,0,0,0-.076.229c-1.223,2.942-2.751,4.241-5.044,4.241h0c-2.331,0-3.859-1.337-5.082-4.28,0-.038-.038-.076-.076-.115,0-.038,0-.038-.038-.076h0a.556.556,0,0,0-.993,0,.543.543,0,0,0-.076.229c-1.185,2.866-2.675,4.165-4.929,4.241-2.254-.038-3.745-1.376-4.929-4.28,0-.038-.038-.076-.038-.115s-.038-.038-.038-.076h0a.556.556,0,0,0-.993,0h0a.543.543,0,0,0-.076.229c-1.223,2.942-2.751,4.241-5.082,4.241h0c-2.331,0-3.859-1.337-5.082-4.28,0-.038-.038-.076-.038-.115s-.038-.038-.038-.076H6.3a.551.551,0,0,0-.5-.306.6.6,0,0,0-.5.306.543.543,0,0,0-.076.229c-1.376,2.942-2.9,4.241-5.235,4.241H.038V254.8H67.366v-4.127h.076C65.112,250.715,63.621,249.377,62.4,246.4Z" transform="translate(0 -151.939)"/>
      <rect id="Rectangle_218" data-name="Rectangle 218" class="cls-2" width="67.443" height="10.508" transform="translate(0 57.546)"/>
      <path id="Tracé_2242" data-name="Tracé 2242" class="cls-2" d="M123.432,206.78a.543.543,0,0,1,.076-.229.653.653,0,0,1,.5-.267.6.6,0,0,1,.5.267h0c0,.038.038.038.038.076s.038.076.038.115c.917,2.178,2.025,3.4,3.554,3.859V185H119v25.754C120.949,210.525,122.324,209.264,123.432,206.78Z" transform="translate(-73.529 -114.309)"/>
      <path id="Tracé_2243" data-name="Tracé 2243" class="cls-2" d="M36.071,206.551a.595.595,0,0,1,.993,0h0c0,.038.038.038.038.076s.038.076.038.115c.917,2.178,2.025,3.4,3.554,3.859V185H31.6v25.754c1.949-.229,3.324-1.452,4.432-3.974A.253.253,0,0,1,36.071,206.551Z" transform="translate(-19.525 -114.309)"/>
    </g>
  </g>
</svg>
